<svg xmlns="http://www.w3.org/2000/svg" viewBox="0 0 48 48" width="96px" height="96px"><path fill="#9FA8DA" d="M39 21L28 8.167v9.269c2.07 2.34 4.827 5.392 7 7.564 3.535 3.535 8 3 8 3L39 21zM18 33.906c-1.318-.203-3.629-.85-5-2.906-1-2-1-4-1-4s0-3-3-3c0 0 2 4 0 4-1 0-2-1-2-6 0 0-2 1-2 4 0 2.896 3.745 8.583 13 12.572V33.906zM18 16.222c-.08-.076-.155-.147-.237-.226H16v-2h-2v-2h-2v-1.989c-.003-.003-.006-.007-.01-.011H10V8.065C6 8 4 5 4 5s0 6 2 8c1 1 12 12 12 12V16.222z"/><path fill="#FF3D00" d="M29,37c0,3.314-2.687,6-6,6l0,0c-3.313,0-6-2.686-6-6V11c0-3.314,2.687-6,6-6l0,0c3.313,0,6,2.686,6,6V37z"/><path fill="#FFF" d="M22 33H24V39H22z"/><path fill="#FFF" d="M20 35H26V37H20z"/><path fill="#DD2C00" d="M23 10A2 2 0 1 0 23 14A2 2 0 1 0 23 10Z"/><g><path fill="#7986CB" d="M28.604 8.872C28.856 9.534 29 10.25 29 11v4.547c.604.686 1.281 1.448 2 2.249v-6.13L28.604 8.872zM15 22c.786.786 1.479 1.479 2 2v-6.172l-2-1.998V22zM17 37v-3.307c-.623-.168-1.32-.429-2-.831V37c0 .043.006.086.007.129.67.362 1.366.719 2.112 1.063C17.041 37.806 17 37.408 17 37z"/></g><g><path fill="#C5CAE9" d="M41.865 26.014c-1.248-.078-3.528-.505-5.451-2.428-1.641-1.641-3.641-3.815-5.414-5.79v3.022c1.362 1.49 2.77 2.979 4 4.182 3.709 3.625 7.914 3.008 7.945 3.006.002 0 .003-.001.004-.001C42.982 28.002 43 28 43 28L41.865 26.014zM15 13.996h-1v-1.992c-.003-.002-.006-.005-.008-.008H12v-1.989c-.003-.003-.006-.007-.01-.011H10V8.065C6 8 4 5 4 5s.002 1.379.223 3.033c1.13.878 2.762 1.77 4.917 1.984l1.437 1.393L15 15.83V13.996z"/></g></svg>